<svg id="visual" viewBox="0 0 900 600" width="900" height="600" xmlns="http://www.w3.org/2000/svg" xmlns:xlink="http://www.w3.org/1999/xlink" version="1.1"><path d="M0 79L82 109L164 49L245 85L327 49L409 103L491 85L573 55L655 121L736 79L818 127L900 61L900 0L818 0L736 0L655 0L573 0L491 0L409 0L327 0L245 0L164 0L82 0L0 0Z" fill="#0fdbd1"></path><path d="M0 205L82 343L164 307L245 193L327 253L409 223L491 235L573 175L655 211L736 349L818 361L900 163L900 59L818 125L736 77L655 119L573 53L491 83L409 101L327 47L245 83L164 47L82 107L0 77Z" fill="#0acec7"></path><path d="M0 451L82 451L164 481L245 379L327 397L409 379L491 373L573 469L655 439L736 481L818 451L900 433L900 161L818 359L736 347L655 209L573 173L491 233L409 221L327 251L245 191L164 305L82 341L0 203Z" fill="#08c2bd"></path><path d="M0 517L82 517L164 541L245 439L327 469L409 475L491 469L573 523L655 481L736 523L818 505L900 535L900 431L818 449L736 479L655 437L573 467L491 371L409 377L327 395L245 377L164 479L82 449L0 449Z" fill="#08b5b3"></path><path d="M0 601L82 601L164 601L245 601L327 601L409 601L491 601L573 601L655 601L736 601L818 601L900 601L900 533L818 503L736 521L655 479L573 521L491 467L409 473L327 467L245 437L164 539L82 515L0 515Z" fill="#09a9a8"></path></svg>